<?xml version="1.0" standalone="no"?><?xml-stylesheet type="text/css" href="https://www.processon.com/themes/default/mind/icons/icons.css" ?><!DOCTYPE svg PUBLIC "-//W3C//DTD SVG 1.1//EN" "http://www.w3.org/Graphics/SVG/1.1/DTD/svg11.dtd"><svg id="SvgjsSvg1615" xmlns="http://www.w3.org/2000/svg" version="1.1" xmlns:xlink="http://www.w3.org/1999/xlink" xmlns:svgjs="http://svgjs.com/svgjs" width="871" height="717"><rect fill="url(#pattern_mark)" transform="translate(-164,-19)" width="1247" height="800" id="rect_mark" pointer-events="none"></rect><defs id="SvgjsDefs1616"><marker id="SvgjsMarker1651" markerWidth="14" markerHeight="10" refX="10" refY="5" viewBox="0 0 14 10" orient="auto" markerUnits="userSpaceOnUse" stroke-dasharray="0,0"><path id="SvgjsPath1652" d="M0 0L14 5L0 10L0 0 " fill="#323232" stroke="#323232" stroke-width="1"></path></marker><marker id="SvgjsMarker1655" markerWidth="14" markerHeight="10" refX="10" refY="5" viewBox="0 0 14 10" orient="auto" markerUnits="userSpaceOnUse" stroke-dasharray="0,0"><path id="SvgjsPath1656" d="M0 0L14 5L0 10L0 0 " fill="#323232" stroke="#323232" stroke-width="1"></path></marker><marker id="SvgjsMarker1667" markerWidth="14" markerHeight="10" refX="10" refY="5" viewBox="0 0 14 10" orient="auto" markerUnits="userSpaceOnUse" stroke-dasharray="0,0"><path id="SvgjsPath1668" d="M0 0L14 5L0 10L0 0 " fill="#323232" stroke="#323232" stroke-width="1"></path></marker><marker id="SvgjsMarker1671" markerWidth="14" markerHeight="10" refX="10" refY="5" viewBox="0 0 14 10" orient="auto" markerUnits="userSpaceOnUse" stroke-dasharray="0,0"><path id="SvgjsPath1672" d="M0 0L14 5L0 10L0 0 " fill="#323232" stroke="#323232" stroke-width="1"></path></marker><marker id="SvgjsMarker1685" markerWidth="14" markerHeight="10" refX="10" refY="5" viewBox="0 0 14 10" orient="auto" markerUnits="userSpaceOnUse" stroke-dasharray="0,0"><path id="SvgjsPath1686" d="M0 0L14 5L0 10L0 0 " fill="#323232" stroke="#323232" stroke-width="1"></path></marker><marker id="SvgjsMarker1711" markerWidth="14" markerHeight="10" refX="10" refY="5" viewBox="0 0 14 10" orient="auto" markerUnits="userSpaceOnUse" stroke-dasharray="0,0"><path id="SvgjsPath1712" d="M0 0L14 5L0 10L0 0 " fill="#323232" stroke="#323232" stroke-width="1"></path></marker><marker id="SvgjsMarker1731" markerWidth="14" markerHeight="10" refX="10" refY="5" viewBox="0 0 14 10" orient="auto" markerUnits="userSpaceOnUse" stroke-dasharray="0,0"><path id="SvgjsPath1732" d="M0 0L14 5L0 10L0 0 " fill="#323232" stroke="#323232" stroke-width="1"></path></marker><marker id="SvgjsMarker1743" markerWidth="14" markerHeight="10" refX="10" refY="5" viewBox="0 0 14 10" orient="auto" markerUnits="userSpaceOnUse" stroke-dasharray="0,0"><path id="SvgjsPath1744" d="M0 0L14 5L0 10L0 0 " fill="#323232" stroke="#323232" stroke-width="1"></path></marker><marker id="SvgjsMarker1755" markerWidth="14" markerHeight="10" refX="10" refY="5" viewBox="0 0 14 10" orient="auto" markerUnits="userSpaceOnUse" stroke-dasharray="0,0"><path id="SvgjsPath1756" d="M0 0L14 5L0 10L0 0 " fill="#323232" stroke="#323232" stroke-width="1"></path></marker><marker id="SvgjsMarker1770" markerWidth="14" markerHeight="10" refX="10" refY="5" viewBox="0 0 14 10" orient="auto" markerUnits="userSpaceOnUse" stroke-dasharray="0,0"><path id="SvgjsPath1771" d="M0 0L14 5L0 10L0 0 " fill="#323232" stroke="#323232" stroke-width="1"></path></marker><marker id="SvgjsMarker1774" markerWidth="14" markerHeight="10" refX="10" refY="5" viewBox="0 0 14 10" orient="auto" markerUnits="userSpaceOnUse" stroke-dasharray="0,0"><path id="SvgjsPath1775" d="M0 0L14 5L0 10L0 0 " fill="#323232" stroke="#323232" stroke-width="1"></path></marker><marker id="SvgjsMarker1782" markerWidth="14" markerHeight="10" refX="10" refY="5" viewBox="0 0 14 10" orient="auto" markerUnits="userSpaceOnUse" stroke-dasharray="0,0"><path id="SvgjsPath1783" d="M0 0L14 5L0 10L0 0 " fill="#323232" stroke="#323232" stroke-width="1"></path></marker><pattern patternUnits="userSpaceOnUse" id="pattern_mark" width="300" height="300"><text x="-50" y="150" fill="rgba(229,229,229,0.8)" font-size="18" transform="rotate(-45, 150, 150)"></text></pattern></defs><g id="SvgjsG1617" transform="translate(130,182)"><path id="SvgjsPath1618" d="M18 0Q9 0 9 9L9 231Q9 240 0 240Q9 240 9 249L9 471Q9 480 18 480 " stroke="rgba(50,50,50,1)" stroke-width="2" fill="none"></path><path id="SvgjsPath1619" d="M549 480Q558 480 558 471L558 249Q558 240 567 240Q558 240 558 231L558 9Q558 0 549 0 " stroke="rgba(50,50,50,1)" stroke-width="2" fill="none"></path><path id="SvgjsPath1620" d="M0 0L567 0L567 480L0 480Z " stroke="none" fill="none"></path><g id="SvgjsG1621"><text id="SvgjsText1622" font-family="微软雅黑" text-anchor="middle" font-size="13px" width="547px" fill="#323232" font-weight="400" align="middle" lineHeight="125%" font-style="" opacity="1" y="229.375" transform="rotate(0)"></text></g></g><g id="SvgjsG1623" transform="translate(264.5,55)"><path id="SvgjsPath1624" d="M0 4Q0 0 4 0L101 0Q105 0 105 4L105 61Q105 65 101 65L4 65Q0 65 0 61Z " stroke="rgba(50,50,50,1)" stroke-width="2" fill-opacity="1" fill="#ffffff"></path><g id="SvgjsG1625"><text id="SvgjsText1626" font-family="微软雅黑" text-anchor="middle" font-size="13px" width="85px" fill="#323232" font-weight="400" align="middle" lineHeight="125%" font-style="" opacity="1" y="5.875" transform="rotate(0)"><tspan id="SvgjsTspan1627" dy="16" x="52.5"><tspan id="SvgjsTspan1628" style="text-decoration:;">if语句等待开</tspan></tspan><tspan id="SvgjsTspan1629" dy="16" x="52.5"><tspan id="SvgjsTspan1630" style="text-decoration:;">始自锁按钮进</tspan></tspan><tspan id="SvgjsTspan1631" dy="16" x="52.5"><tspan id="SvgjsTspan1632" style="text-decoration:;">入输入状态</tspan></tspan></text></g></g><g id="SvgjsG1633" transform="translate(267,318)"><path id="SvgjsPath1634" d="M0 4Q0 0 4 0L96 0Q100 0 100 4L100 66Q100 70 96 70L4 70Q0 70 0 66Z " stroke="rgba(50,50,50,1)" stroke-width="2" fill-opacity="1" fill="#ffffff"></path><g id="SvgjsG1635"><text id="SvgjsText1636" font-family="微软雅黑" text-anchor="middle" font-size="13px" width="80px" fill="#323232" font-weight="400" align="middle" lineHeight="125%" font-style="" opacity="1" y="16.375" transform="rotate(0)"><tspan id="SvgjsTspan1637" dy="16" x="50"><tspan id="SvgjsTspan1638" style="text-decoration:;">按照设定时间</tspan></tspan><tspan id="SvgjsTspan1639" dy="16" x="50"><tspan id="SvgjsTspan1640" style="text-decoration:;">开始工作</tspan></tspan></text></g></g><g id="SvgjsG1641" transform="translate(561,52.5)"><path id="SvgjsPath1642" d="M0 4Q0 0 4 0L96 0Q100 0 100 4L100 66Q100 70 96 70L4 70Q0 70 0 66Z " stroke="rgba(50,50,50,1)" stroke-width="2" fill-opacity="1" fill="#ffffff"></path><g id="SvgjsG1643"><text id="SvgjsText1644" font-family="微软雅黑" text-anchor="middle" font-size="13px" width="80px" fill="#323232" font-weight="400" align="middle" lineHeight="125%" font-style="" opacity="1" y="16.375" transform="rotate(0)"><tspan id="SvgjsTspan1645" dy="16" x="50"><tspan id="SvgjsTspan1646" style="text-decoration:;">旋钮选择工作</tspan></tspan><tspan id="SvgjsTspan1647" dy="16" x="50"><tspan id="SvgjsTspan1648" style="text-decoration:;">时间长度</tspan></tspan></text></g></g><g id="SvgjsG1649"><path id="SvgjsPath1650" d="M370.5 87.5L465.25 87.5L465.25 87.5L557.4 87.5 " stroke="#323232" stroke-width="2" fill="none" marker-end="url(#SvgjsMarker1651)"></path></g><g id="SvgjsG1653"><path id="SvgjsPath1654" d="M611 123.5L611 216.5L373.1 216.5 " stroke="#323232" stroke-width="2" fill="none" marker-end="url(#SvgjsMarker1655)"></path></g><g id="SvgjsG1657" transform="translate(264.5,179)"><path id="SvgjsPath1658" d="M0 4Q0 0 4 0L101 0Q105 0 105 4L105 71Q105 75 101 75L4 75Q0 75 0 71Z " stroke="rgba(50,50,50,1)" stroke-width="2" fill-opacity="1" fill="#ffffff"></path><g id="SvgjsG1659"><text id="SvgjsText1660" font-family="微软雅黑" text-anchor="middle" font-size="13px" width="85px" fill="#323232" font-weight="400" align="middle" lineHeight="125%" font-style="" opacity="1" y="18.875" transform="rotate(0)"><tspan id="SvgjsTspan1661" dy="16" x="52.5"><tspan id="SvgjsTspan1662" style="text-decoration:;">按下开始自锁</tspan></tspan><tspan id="SvgjsTspan1663" dy="16" x="52.5"><tspan id="SvgjsTspan1664" style="text-decoration:;">按钮</tspan></tspan></text></g></g><g id="SvgjsG1665"><path id="SvgjsPath1666" d="M317 121L317 149.5L317 149.5L317 175.4 " stroke="#323232" stroke-width="2" fill="none" marker-end="url(#SvgjsMarker1667)"></path></g><g id="SvgjsG1669"><path id="SvgjsPath1670" d="M317 255L317 286L317 286L317 314.4 " stroke="#323232" stroke-width="2" fill="none" marker-end="url(#SvgjsMarker1671)"></path></g><g id="SvgjsG1673" transform="translate(561,318)"><path id="SvgjsPath1674" d="M0 4Q0 0 4 0L96 0Q100 0 100 4L100 66Q100 70 96 70L4 70Q0 70 0 66Z " stroke="rgba(50,50,50,1)" stroke-width="2" fill-opacity="1" fill="#ffffff"></path><g id="SvgjsG1675"><text id="SvgjsText1676" font-family="微软雅黑" text-anchor="middle" font-size="13px" width="80px" fill="#323232" font-weight="400" align="middle" lineHeight="125%" font-style="" opacity="1" y="8.375" transform="rotate(0)"><tspan id="SvgjsTspan1677" dy="16" x="50"><tspan id="SvgjsTspan1678" style="text-decoration:;">如果设定为最</tspan></tspan><tspan id="SvgjsTspan1679" dy="16" x="50"><tspan id="SvgjsTspan1680" style="text-decoration:;">大值则显示∞</tspan></tspan><tspan id="SvgjsTspan1681" dy="16" x="50"><tspan id="SvgjsTspan1682" style="text-decoration:;">且一直工作</tspan></tspan></text></g></g><g id="SvgjsG1683"><path id="SvgjsPath1684" d="M368 353L464 353L464 353L557.4 353 " stroke="#323232" stroke-width="2" fill="none" marker-end="url(#SvgjsMarker1685)"></path></g><g id="SvgjsG1687" transform="translate(130,52.5)"><path id="SvgjsPath1688" d="M18 0Q9 0 9 8.55L9 34.2Q9 42.75 0 42.75Q9 42.75 9 51.3L9 76.95Q9 85.5 18 85.5 " stroke="rgba(50,50,50,1)" stroke-width="2" fill="none"></path><path id="SvgjsPath1689" d="M549 85.5Q558 85.5 558 76.95L558 51.3Q558 42.75 567 42.75Q558 42.75 558 34.2L558 8.55Q558 0 549 0 " stroke="rgba(50,50,50,1)" stroke-width="2" fill="none"></path><path id="SvgjsPath1690" d="M0 0L567 0L567 85.5L0 85.5Z " stroke="none" fill="none"></path><g id="SvgjsG1691"><text id="SvgjsText1692" font-family="微软雅黑" text-anchor="middle" font-size="13px" width="547px" fill="#323232" font-weight="400" align="middle" lineHeight="125%" font-style="" opacity="1" y="32.125" transform="rotate(0)"></text></g></g><g id="SvgjsG1693" transform="translate(25,77.25)"><path id="SvgjsPath1694" d="M0 0L96 0L96 36L0 36Z " stroke="none" fill="none"></path><g id="SvgjsG1695"><text id="SvgjsText1696" font-family="微软雅黑" text-anchor="middle" font-size="13px" width="96px" fill="#323232" font-weight="400" align="middle" lineHeight="125%" font-style="" opacity="1" y="-0.625" transform="rotate(0)"><tspan id="SvgjsTspan1697" dy="16" x="48"><tspan id="SvgjsTspan1698" style="text-decoration:;">时间选择IF语句</tspan></tspan><tspan id="SvgjsTspan1699" dy="16" x="48"><tspan id="SvgjsTspan1700" style="text-decoration:;">范围</tspan></tspan></text></g></g><g id="SvgjsG1701" transform="translate(145,196.5)"><path id="SvgjsPath1702" d="M0 0L87 0L87 40L0 40Z " stroke="none" fill="none"></path><g id="SvgjsG1703"><text id="SvgjsText1704" font-family="微软雅黑" text-anchor="middle" font-size="13px" width="87px" fill="#323232" font-weight="400" align="middle" lineHeight="125%" font-style="" opacity="1" y="1.375" transform="rotate(0)"><tspan id="SvgjsTspan1705" dy="16" x="43.5"><tspan id="SvgjsTspan1706" style="text-decoration:;">IF接收输入则</tspan></tspan><tspan id="SvgjsTspan1707" dy="16" x="43.5"><tspan id="SvgjsTspan1708" style="text-decoration:;">结束IF语句</tspan></tspan></text></g></g><g id="SvgjsG1709"><path id="SvgjsPath1710" d="M233 216.5L248.25 216.5L248.25 216.5L260.9 216.5 " stroke="#323232" stroke-width="2" fill="none" marker-end="url(#SvgjsMarker1711)"></path></g><g id="SvgjsG1713" transform="translate(25,454)"><path id="SvgjsPath1714" d="M0 0L96 0L96 36L0 36Z " stroke="none" fill="none"></path><g id="SvgjsG1715"><text id="SvgjsText1716" font-family="微软雅黑" text-anchor="middle" font-size="13px" width="96px" fill="#323232" font-weight="400" align="middle" lineHeight="125%" font-style="" opacity="1" y="7.375" transform="rotate(0)"><tspan id="SvgjsTspan1717" dy="16" x="48"><tspan id="SvgjsTspan1718" style="text-decoration:;">工作IF语句范围</tspan></tspan></text></g></g><g id="SvgjsG1719" transform="translate(152,330.5)"><path id="SvgjsPath1720" d="M0 0L80 0L80 45L0 45Z " stroke="none" fill="none"></path><g id="SvgjsG1721"><text id="SvgjsText1722" font-family="微软雅黑" text-anchor="middle" font-size="13px" width="80px" fill="#323232" font-weight="400" align="middle" lineHeight="125%" font-style="" opacity="1" y="-4.125" transform="rotate(0)"><tspan id="SvgjsTspan1723" dy="16" x="40"><tspan id="SvgjsTspan1724" style="text-decoration:;">接上一个IF语</tspan></tspan><tspan id="SvgjsTspan1725" dy="16" x="40"><tspan id="SvgjsTspan1726" style="text-decoration:;">句结束随即开</tspan></tspan><tspan id="SvgjsTspan1727" dy="16" x="40"><tspan id="SvgjsTspan1728" style="text-decoration:;">始运行</tspan></tspan></text></g></g><g id="SvgjsG1729"><path id="SvgjsPath1730" d="M233 353L249.5 353L249.5 353L263.4 353 " stroke="#323232" stroke-width="2" fill="none" marker-end="url(#SvgjsMarker1731)"></path></g><g id="SvgjsG1733" transform="translate(267,455)"><path id="SvgjsPath1734" d="M0 4Q0 0 4 0L96 0Q100 0 100 4L100 66Q100 70 96 70L4 70Q0 70 0 66Z " stroke="rgba(50,50,50,1)" stroke-width="2" fill-opacity="1" fill="#ffffff"></path><g id="SvgjsG1735"><text id="SvgjsText1736" font-family="微软雅黑" text-anchor="middle" font-size="13px" width="80px" fill="#323232" font-weight="400" align="middle" lineHeight="125%" font-style="" opacity="1" y="16.375" transform="rotate(0)"><tspan id="SvgjsTspan1737" dy="16" x="50"><tspan id="SvgjsTspan1738" style="text-decoration:;">按照设定时间</tspan></tspan><tspan id="SvgjsTspan1739" dy="16" x="50"><tspan id="SvgjsTspan1740" style="text-decoration:;">倒计时</tspan></tspan></text></g></g><g id="SvgjsG1741"><path id="SvgjsPath1742" d="M317 389L317 421.5L317 421.5L317 451.4 " stroke="#323232" stroke-width="2" fill="none" marker-end="url(#SvgjsMarker1743)"></path></g><g id="SvgjsG1745" transform="translate(152,470)"><path id="SvgjsPath1746" d="M0 0L80 0L80 40L0 40Z " stroke="none" fill="none"></path><g id="SvgjsG1747"><text id="SvgjsText1748" font-family="微软雅黑" text-anchor="middle" font-size="13px" width="80px" fill="#323232" font-weight="400" align="middle" lineHeight="125%" font-style="" opacity="1" y="1.375" transform="rotate(0)"><tspan id="SvgjsTspan1749" dy="16" x="40"><tspan id="SvgjsTspan1750" style="text-decoration:;">自身小循环计</tspan></tspan><tspan id="SvgjsTspan1751" dy="16" x="40"><tspan id="SvgjsTspan1752" style="text-decoration:;">时</tspan></tspan></text></g></g><g id="SvgjsG1753"><path id="SvgjsPath1754" d="M233 490L249.5 490L249.5 490L263.4 490 " stroke="#323232" stroke-width="2" fill="none" marker-end="url(#SvgjsMarker1755)"></path></g><g id="SvgjsG1757" transform="translate(267,592)"><path id="SvgjsPath1758" d="M0 4Q0 0 4 0L96 0Q100 0 100 4L100 66Q100 70 96 70L4 70Q0 70 0 66Z " stroke="rgba(50,50,50,1)" stroke-width="2" fill-opacity="1" fill="#ffffff"></path><g id="SvgjsG1759"><text id="SvgjsText1760" font-family="微软雅黑" text-anchor="middle" font-size="13px" width="80px" fill="#323232" font-weight="400" align="middle" lineHeight="125%" font-style="" opacity="1" y="8.375" transform="rotate(0)"><tspan id="SvgjsTspan1761" dy="16" x="50"><tspan id="SvgjsTspan1762" style="text-decoration:;">倒计时结束则</tspan></tspan><tspan id="SvgjsTspan1763" dy="16" x="50"><tspan id="SvgjsTspan1764" style="text-decoration:;">结束IF语句循</tspan></tspan><tspan id="SvgjsTspan1765" dy="16" x="50"><tspan id="SvgjsTspan1766" style="text-decoration:;">环</tspan><tspan id="SvgjsTspan1767" style="text-decoration:;font-size: inherit;">停止工作</tspan></tspan></text></g></g><g id="SvgjsG1768"><path id="SvgjsPath1769" d="M317 526L317 558.5L317 558.5L317 588.4 " stroke="#323232" stroke-width="2" fill="none" marker-end="url(#SvgjsMarker1770)"></path></g><g id="SvgjsG1772"><path id="SvgjsPath1773" d="M317 663L317 692L810.5 692L810.5 25L317 25L317 51.400000000000006 " stroke="#323232" stroke-width="2" fill="none" marker-end="url(#SvgjsMarker1774)"></path><rect id="SvgjsRect1776" width="91" height="16" x="765" y="351.79999999999995" fill="#ffffff"></rect><text id="SvgjsText1777" font-family="微软雅黑" text-anchor="middle" font-size="13px" width="91px" fill="#323232" font-weight="400" align="top" lineHeight="16px" font-style="" opacity="1" y="349.17499999999995" transform="rotate(0)"><tspan id="SvgjsTspan1778" dy="16" x="810.5"><tspan id="SvgjsTspan1779" style="text-decoration:;">等待下一次工作</tspan></tspan></text></g><g id="SvgjsG1780"><path id="SvgjsPath1781" d="M611 389L611 627L370.6 627 " stroke="#323232" stroke-width="2" fill="none" marker-end="url(#SvgjsMarker1782)"></path><rect id="SvgjsRect1784" width="104" height="32" x="557.8000000000001" y="611" fill="#ffffff"></rect><text id="SvgjsText1785" font-family="微软雅黑" text-anchor="middle" font-size="13px" width="104px" fill="#323232" font-weight="400" align="top" lineHeight="16px" font-style="" opacity="1" y="608.375" transform="rotate(0)"><tspan id="SvgjsTspan1786" dy="16" x="609.8000000000001"><tspan id="SvgjsTspan1787" style="text-decoration:;">如果开始自锁按钮</tspan></tspan><tspan id="SvgjsTspan1788" dy="16" x="609.8000000000001"><tspan id="SvgjsTspan1789" style="text-decoration:;">停止输入状态</tspan></tspan></text></g></svg>